<?xml version="1.0"?>
<svg xmlns="http://www.w3.org/2000/svg" id="Layer_1" data-name="Layer 1" viewBox="0 0 128 128" width="512" height="512"><title>DECEMBER</title><rect x="24.568" y="28.401" width="78.863" height="78.863" rx="3.341" ry="3.341" style="fill:#fff"/><path d="M103.432,49.68V31.742a3.341,3.341,0,0,0-3.341-3.341H27.909a3.341,3.341,0,0,0-3.341,3.341V49.68Z" style="fill:#fe4e84"/><path d="M40.436,36.038h0a4.32,4.32,0,0,1-4.32-4.32V25.085a4.32,4.32,0,0,1,4.32-4.32h0a4.32,4.32,0,0,1,4.32,4.32v6.633A4.32,4.32,0,0,1,40.436,36.038Z" style="fill:#f8b940"/><path d="M87.564,36.038h0a4.32,4.32,0,0,1-4.32-4.32V25.085a4.32,4.32,0,0,1,4.32-4.32h0a4.32,4.32,0,0,1,4.32,4.32v6.633A4.32,4.32,0,0,1,87.564,36.038Z" style="fill:#f8b940"/><path d="M31.5,106H27.909a2.093,2.093,0,0,1-2.091-2.091V31.728a2.093,2.093,0,0,1,2.091-2.091h6.956V31.7a5.57,5.57,0,1,0,11.14,0V25.07a5.57,5.57,0,1,0-11.14,0v2.066H27.909a4.6,4.6,0,0,0-4.591,4.591v72.182a4.6,4.6,0,0,0,4.591,4.591H31.5a1.25,1.25,0,0,0,0-2.5Zm5.866-80.93a3.07,3.07,0,1,1,6.14,0V31.7a3.07,3.07,0,1,1-6.14,0Z" style="fill:#603073"/><path d="M103.432,60.417a1.25,1.25,0,0,0-1.25,1.25v42.242A2.093,2.093,0,0,1,100.091,106H37.5a1.25,1.25,0,0,0,0,2.5h62.591a4.6,4.6,0,0,0,4.591-4.591V61.667A1.25,1.25,0,0,0,103.432,60.417Z" style="fill:#603073"/><path d="M100.091,27.137H96.5a1.25,1.25,0,0,0,0,2.5h3.591a2.093,2.093,0,0,1,2.091,2.091V48.415H35.875a1.25,1.25,0,0,0,0,2.5h66.307v4.752a1.25,1.25,0,1,0,2.5,0V31.728A4.6,4.6,0,0,0,100.091,27.137Z" style="fill:#603073"/><path d="M49.75,29.637H81.994V31.7a5.57,5.57,0,1,0,11.14,0V25.07a5.57,5.57,0,1,0-11.14,0v2.066H49.75a1.25,1.25,0,0,0,0,2.5ZM84.494,25.07a3.07,3.07,0,1,1,6.14,0V31.7a3.07,3.07,0,1,1-6.14,0Z" style="fill:#603073"/><path d="M29.568,48.415a1.25,1.25,0,0,0,0,2.5H30.75a1.25,1.25,0,0,0,0-2.5Z" style="fill:#603073"/><path d="M51.448,84.862A8.045,8.045,0,0,0,53.4,81.638a11.993,11.993,0,0,0,.56-3.883,13.463,13.463,0,0,0-.6-4.312,7.97,7.97,0,0,0-1.742-2.956,6.1,6.1,0,0,0-2.75-1.68,13.149,13.149,0,0,0-3.472-.349H38.667V86.7H45.6a11.146,11.146,0,0,0,3.261-.386A6.476,6.476,0,0,0,51.448,84.862Zm-4.12-1.406a10.042,10.042,0,0,1-2.228.174h-2.75V71.545h1.655a16.709,16.709,0,0,1,3.024.174,3.506,3.506,0,0,1,1.705.859,4.176,4.176,0,0,1,1.045,1.767,10.9,10.9,0,0,1,.373,3.248,11.9,11.9,0,0,1-.373,3.342,3.863,3.863,0,0,1-.964,1.761A3.4,3.4,0,0,1,47.329,83.455Z" style="fill:#603073"/><polygon points="70.615 71.545 70.615 68.458 57.086 68.458 57.086 86.704 70.963 86.704 70.963 83.629 60.77 83.629 60.77 78.664 69.93 78.664 69.93 75.59 60.77 75.59 60.77 71.545 70.615 71.545" style="fill:#603073"/><path d="M81.791,71.3a3.769,3.769,0,0,1,3.846,3.062l3.647-.871a7.2,7.2,0,0,0-1.867-3.36,7.589,7.589,0,0,0-5.439-1.979,8.066,8.066,0,0,0-6.185,2.52,9.974,9.974,0,0,0-2.352,7.076,9.5,9.5,0,0,0,2.34,6.789A8.6,8.6,0,0,0,86.6,85.565a8.011,8.011,0,0,0,2.732-4.437L85.761,80a5.422,5.422,0,0,1-1.518,2.937,3.69,3.69,0,0,1-2.526.933A4.041,4.041,0,0,1,78.481,82.4q-1.245-1.469-1.245-4.928,0-3.261,1.263-4.717A4.151,4.151,0,0,1,81.791,71.3Z" style="fill:#603073"/></svg>
